<svg xmlns="http://www.w3.org/2000/svg" width="595.6298828125" height="378.142822265625" viewBox="-365.0093688964844 -175.09152221679688 595.6298828125 378.142822265625"><title>Neo4j Graph Visualization</title><desc>Created using Neo4j (http://www.neo4j.com/)</desc><g class="layer relationships"><g class="relationship" transform="translate(43.1531155692561 -138.591528601929) rotate(392.3416571093687)"><path class="outline" fill="#A5ABB6" stroke="none" d="M 32.5 0.75 L 53.72655113110294 0.75 L 53.72655113110294 -0.75 L 32.5 -0.75 Z M 117.45988471874942 0.75 L 138.68643584985236 0.75 L 138.68643584985236 3.75 L 146.18643584985236 0 L 138.68643584985236 -3.75 L 138.68643584985236 -0.75 L 117.45988471874942 -0.75 Z"/><text text-anchor="middle" pointer-events="none" font-size="8px" fill="#000000" x="85.59321792492618" y="3" font-family="sans-serif">CAUSES_CcSE</text></g><g class="relationship" transform="translate(43.1531155692561 -138.591528601929) rotate(522.8945474546338)"><path class="outline" fill="#A5ABB6" stroke="none" d="M 27.77082562299426,16.899519052838325 L 28.52082562299426,15.600480947161667 A 201.20400643118882 201.20400643118882 0 0 0 77.06348151179982,35.70515450803617 L 76.67537283357183,37.15407536642843 A 202.70400643118882 202.70400643118882 0 0 1 27.77082562299426,16.899519052838325 Z M 176.0471047786022,38.55063752568796 L 175.6998673699824,37.09138217378586 A 201.20400643118882 201.20400643118882 0 0 0 224.78833874228906,18.358808456900825 L 223.3619430417181,15.719604920719375 L 231.74294650788542,15.452620089518765 L 226.92793229314552,22.317613761172993 L 225.50153659257455,19.678410224991545 A 202.70400643118882 202.70400643118882 0 0 1 176.0471047786022,38.55063752568796"/><text text-anchor="middle" pointer-events="none" font-size="8px" fill="#000000" x="126.28486407195432" y="46.28676518847544" transform="rotate(180 126.28486407195432 43.28676518847544)" font-family="sans-serif">DOWNREGULATES_CdG</text></g><g class="relationship" transform="translate(43.1531155692561 -138.591528601929) rotate(458.8568659902712)"><path class="outline" fill="#A5ABB6" stroke="none" d="M 31.198475070567827,9.136063335548725 L 31.58670363822161,7.687174596115122 A 471.16146788640975 471.16146788640975 0 0 0 116.79658082592496,22.30731878114284 L 116.67962829524194,23.802752532790464 A 472.66146788640975 472.66146788640975 0 0 1 31.198475070567827,9.136063335548725 Z M 184.5943097739897,24.21985074486514 L 184.49573379401653,22.723093324248055 A 471.16146788640975 471.16146788640975 0 0 0 269.8787558642234,9.150645921769108 L 269.1379493746321,6.243550163975875 L 277.33169688110434,8.025403637239153 L 270.98996559861035,13.511289558458955 L 270.24915910901905,10.604193800665723 A 472.66146788640975 472.66146788640975 0 0 1 184.5943097739897,24.21985074486514"/><text text-anchor="middle" pointer-events="none" font-size="8px" fill="#000000" x="150.63407386186515" y="27.482712758550974" transform="rotate(180 150.63407386186515 24.482712758550974)" font-family="sans-serif">PALLIATES_CpD</text></g><g class="relationship" transform="translate(-4.395648399407662 166.55129100729164) rotate(228.6341787380739)"><path class="outline" fill="#A5ABB6" stroke="none" d="M 27.77082562299426,16.899519052838325 L 28.52082562299426,15.600480947161667 A 245.728187241651 245.728187241651 0 0 0 98.9640842309131,42.86528030253035 L 98.64409142340489,44.33075108120286 A 247.228187241651 247.228187241651 0 0 1 27.77082562299426,16.899519052838325 Z M 198.28735833344075,45.53204266455225 L 198.0027886028636,44.0592833262898 A 245.728187241651 245.728187241651 0 0 0 269.08288211830353,18.500678649450407 L 267.6459534021192,15.867195050753653 L 276.02582329409154,15.566727758663735 L 271.2382751925801,22.45090404749554 L 269.80134647639574,19.817420448798785 A 247.228187241651 247.228187241651 0 0 1 198.28735833344075,45.53204266455225"/><text text-anchor="middle" pointer-events="none" font-size="8px" fill="#000000" x="148.4136130478429" y="52.2539053426118" transform="rotate(180 148.4136130478429 49.2539053426118)" font-family="sans-serif">DOWNREGULATES_DdG</text></g><g class="relationship" transform="translate(-4.395648399407662 166.55129100729164) rotate(228.6341787380739)"><path class="outline" fill="#A5ABB6" stroke="none" d="M 32.5 0.75 L 109.8276137103804 0.75 L 109.8276137103804 -0.75 L 32.5 -0.75 Z M 187.2276152362593 0.75 L 264.5552289466397 0.75 L 264.5552289466397 3.75 L 272.0552289466397 0 L 264.5552289466397 -3.75 L 264.5552289466397 -0.75 L 187.2276152362593 -0.75 Z"/><text text-anchor="middle" pointer-events="none" font-size="8px" fill="#000000" x="148.52761447331986" y="3" transform="rotate(180 148.52761447331986 0)" font-family="sans-serif">ASSOCIATES_DaG</text></g><g class="relationship" transform="translate(-4.395648399407662 166.55129100729164) rotate(187.54800355057318)"><path class="outline" fill="#A5ABB6" stroke="none" d="M 32.5 0.75 L 126.07333023501602 0.75 L 126.07333023501602 -0.75 L 32.5 -0.75 Z M 193.37332947207656 0.75 L 286.9466597070926 0.75 L 286.9466597070926 3.75 L 294.4466597070926 0 L 286.9466597070926 -3.75 L 286.9466597070926 -0.75 L 193.37332947207656 -0.75 Z"/><text text-anchor="middle" pointer-events="none" font-size="8px" fill="#000000" x="159.7233298535463" y="3" transform="rotate(180 159.7233298535463 0)" font-family="sans-serif">LOCALIZES_DlA</text></g><g class="relationship" transform="translate(-4.395648399407662 166.55129100729164) rotate(341.1393678936324)"><path class="outline" fill="#A5ABB6" stroke="none" d="M 32.5 0.75 L 61.301909228117694 0.75 L 61.301909228117694 -0.75 L 32.5 -0.75 Z M 130.36857487753176 0.75 L 159.17048410564945 0.75 L 159.17048410564945 3.75 L 166.67048410564945 0 L 159.17048410564945 -3.75 L 159.17048410564945 -0.75 L 130.36857487753176 -0.75 Z"/><text text-anchor="middle" pointer-events="none" font-size="8px" fill="#000000" x="95.83524205282473" y="3" font-family="sans-serif">PRESENTS_DpS</text></g><g class="relationship" transform="translate(-4.395648399407662 166.55129100729164) rotate(228.6341787380739)"><path class="outline" fill="#A5ABB6" stroke="none" d="M 27.77082562299426,-16.899519052838325 L 28.52082562299426,-15.600480947161667 A 245.728187241651 245.728187241651 0 0 1 105.91665694730608,-44.2785743372379 L 105.63910476979501,-45.752672294891596 A 247.228187241651 247.228187241651 0 0 0 27.77082562299426,-16.899519052838325 Z M 191.2600979122656,-46.784912421190654 L 191.01816446337367,-45.30455158466896 A 245.728187241651 245.728187241651 0 0 1 269.08288211830353,-18.500678649450407 L 267.6459534021192,-15.867195050753653 L 276.02582329409154,-15.566727758663735 L 271.2382751925801,-22.45090404749554 L 269.80134647639574,-19.817420448798785 A 247.228187241651 247.228187241651 0 0 0 191.2600979122656,-46.784912421190654"/><text text-anchor="middle" pointer-events="none" font-size="8px" fill="#000000" x="148.41361304784286" y="-46.2539053426118" transform="rotate(180 148.41361304784286 -49.2539053426118)" font-family="sans-serif">UPREGULATES_DuG</text></g><g class="relationship" transform="translate(43.1531155692561 -138.591528601929) rotate(458.8568659902712)"><path class="outline" fill="#A5ABB6" stroke="none" d="M 31.198475070567827,-9.136063335548725 L 31.58670363822161,-7.687174596115122 A 471.16146788640975 471.16146788640975 0 0 1 123.12032256659555,-22.759091822485857 L 123.02350243904294,-24.25596384871278 A 472.66146788640975 472.66146788640975 0 0 0 31.198475070567827,-9.136063335548725 Z M 178.24534758211513,-24.59510896984318 L 178.166920152288,-23.09716066023742 A 471.16146788640975 471.16146788640975 0 0 1 269.8787558642234,-9.150645921769108 L 269.1379493746321,-6.243550163975875 L 277.33169688110434,-8.025403637239153 L 270.98996559861035,-13.511289558458955 L 270.24915910901905,-10.604193800665723 A 472.66146788640975 472.66146788640975 0 0 0 178.24534758211513,-24.59510896984318"/><text text-anchor="middle" pointer-events="none" font-size="8px" fill="#000000" x="150.63407386186515" y="-21.482712758550974" transform="rotate(180 150.63407386186515 -24.482712758550974)" font-family="sans-serif">TREATS_CtD</text></g><g class="relationship" transform="translate(-328.5093662915097 123.60462445697283) rotate(303.4962237722731)"><path class="outline" fill="#A5ABB6" stroke="none" d="M 27.77082562299426,-16.899519052838325 L 28.52082562299426,-15.600480947161667 A 163.106661679461 163.106661679461 0 0 1 70.54014693818273,-32.58896248541724 L 70.17657494378221,-34.04423407686939 A 164.606661679461 164.606661679461 0 0 0 27.77082562299426,-16.899519052838325 Z M 144.72344097654636,-35.264519704553365 L 144.40769478352811,-33.798128098741856 A 163.106661679461 163.106661679461 0 0 1 186.96053610266026,-18.19404003075581 L 185.5463747401213,-15.54826081836828 L 193.9285244742638,-15.320081427505313 L 189.08177814646868,-22.162708849337104 L 187.66761678392973,-19.516929636949573 A 164.606661679461 164.606661679461 0 0 0 144.72344097654636,-35.264519704553365"/><text text-anchor="middle" pointer-events="none" font-size="8px" fill="#000000" x="107.39228456031553" y="-35.18068127212733" font-family="sans-serif">EXPRESSES_AeG</text></g><g class="relationship" transform="translate(43.1531155692561 -138.591528601929) rotate(522.8945474546338)"><path class="outline" fill="#A5ABB6" stroke="none" d="M 32.5 0.75 L 100.76715945639523 0.75 L 100.76715945639523 -0.75 L 32.5 -0.75 Z M 152.06715869345578 0.75 L 220.33431814985101 0.75 L 220.33431814985101 3.75 L 227.83431814985101 0 L 220.33431814985101 -3.75 L 220.33431814985101 -0.75 L 152.06715869345578 -0.75 Z"/><text text-anchor="middle" pointer-events="none" font-size="8px" fill="#000000" x="126.41715907492551" y="3" transform="rotate(180 126.41715907492551 0)" font-family="sans-serif">BINDS_CbG</text></g><g class="relationship" transform="translate(-328.5093662915097 123.60462445697283) rotate(303.4962237722731)"><path class="outline" fill="#A5ABB6" stroke="none" d="M 32.5 0.75 L 57.745567067170484 0.75 L 57.745567067170484 -0.75 L 32.5 -0.75 Z M 157.3455655412916 0.75 L 182.59113260846206 0.75 L 182.59113260846206 3.75 L 190.09113260846206 0 L 182.59113260846206 -3.75 L 182.59113260846206 -0.75 L 157.3455655412916 -0.75 Z"/><text text-anchor="middle" pointer-events="none" font-size="8px" fill="#000000" x="107.54556630423103" y="3" font-family="sans-serif">DOWNREGULATES_AdG</text></g><g class="relationship" transform="translate(-328.5093662915097 123.60462445697283) rotate(303.4962237722731)"><path class="outline" fill="#A5ABB6" stroke="none" d="M 27.77082562299426,16.899519052838325 L 28.52082562299426,15.600480947161667 A 163.106661679461 163.106661679461 0 0 0 65.49116796163698,31.24128452670577 L 65.08116335444899,32.68416228385799 A 164.606661679461 164.606661679461 0 0 1 27.77082562299426,16.899519052838325 Z M 149.86063772373336,34.07194931772166 L 149.49807814514395,32.61642516746751 A 163.106661679461 163.106661679461 0 0 0 186.96053610266026,18.19404003075581 L 185.5463747401213,15.54826081836828 L 193.9285244742638,15.320081427505313 L 189.08177814646868,22.162708849337104 L 187.66761678392973,19.516929636949573 A 164.606661679461 164.606661679461 0 0 1 149.86063772373336,34.07194931772166"/><text text-anchor="middle" pointer-events="none" font-size="8px" fill="#000000" x="107.39228456031553" y="41.18068127212733" font-family="sans-serif">UPREGULATES_AuG</text></g><g class="relationship" transform="translate(43.1531155692561 -138.591528601929) rotate(522.8945474546338)"><path class="outline" fill="#A5ABB6" stroke="none" d="M 27.77082562299426,-16.899519052838325 L 28.52082562299426,-15.600480947161667 A 201.20400643118882 201.20400643118882 0 0 1 83.94317768672175,-37.41863620336886 L 83.60635796861649,-38.88033127331181 A 202.70400643118882 202.70400643118882 0 0 0 27.77082562299426,-16.899519052838325 Z M 169.07034528099126,-40.08143513176046 L 168.77473556059857,-38.61085195043091 A 201.20400643118882 201.20400643118882 0 0 1 224.78833874228906,-18.358808456900825 L 223.3619430417181,-15.719604920719375 L 231.74294650788542,-15.452620089518765 L 226.92793229314552,-22.317613761172993 L 225.50153659257455,-19.678410224991545 A 202.70400643118882 202.70400643118882 0 0 0 169.07034528099126,-40.08143513176046"/><text text-anchor="middle" pointer-events="none" font-size="8px" fill="#000000" x="126.28486407195423" y="-40.28676518847544" transform="rotate(180 126.28486407195423 -43.28676518847544)" font-family="sans-serif">UPREGULATES_CuG</text></g></g><g class="layer nodes"><g class="node" transform="translate(-205.6653213485805,-62.01906190330159)"><circle class="outline" cx="0" cy="0" r="32.5" fill="#0096FF" stroke="#FFFFFF" stroke-width="1px"/><text text-anchor="middle" pointer-events="none" font-family="sans-serif" dy="2.03125" font-size="32.5" fill="#FFFFFF"/><text text-anchor="middle" pointer-events="none" y="5" font-size="10px" fill="#FFFFFF" font-family="sans-serif"> Gene</text></g><g class="node" transform="translate(-4.395648399407662,166.55129100729164)"><circle class="outline" cx="0" cy="0" r="32.5" fill="#8E4F00" stroke="#FFFFFF" stroke-width="1px"/><text text-anchor="middle" pointer-events="none" font-family="sans-serif" dy="2.03125" font-size="32.5" fill="#FFFFFF"/><text text-anchor="middle" pointer-events="none" y="5" font-size="10px" fill="#FFFFFF" font-family="sans-serif"> Disease</text></g><g class="node" transform="translate(43.1531155692561,-138.591528601929)"><circle class="outline" cx="0" cy="0" r="32.5" fill="#FF2600" stroke="#FFFFFF" stroke-width="1px"/><text text-anchor="middle" pointer-events="none" font-family="sans-serif" dy="2.03125" font-size="32.5" fill="#FFFFFF"/><text text-anchor="middle" pointer-events="none" y="5" font-size="10px" fill="#FFFFFF" font-family="sans-serif"> Compound</text></g><g class="node" transform="translate(-328.5093662915097,123.60462445697283)"><circle class="outline" cx="0" cy="0" r="32.5" fill="#008F00" stroke="#FFFFFF" stroke-width="1px"/><text text-anchor="middle" pointer-events="none" font-family="sans-serif" dy="2.03125" font-size="32.5" fill="#FFFFFF"/><text text-anchor="middle" pointer-events="none" y="5" font-size="10px" fill="#FFFFFF" font-family="sans-serif"> Anatomy</text></g><g class="node" transform="translate(184.08091411054517,102.16598893212392)"><circle class="outline" cx="0" cy="0" r="32.5" fill="#A5ABB6" stroke="#FFFFFF" stroke-width="1px"/><text text-anchor="middle" pointer-events="none" font-family="sans-serif" dy="2.03125" font-size="32.5" fill="#FFFFFF"/><text text-anchor="middle" pointer-events="none" y="5" font-size="10px" fill="#FFFFFF" font-family="sans-serif"> Symptom</text></g><g class="node" transform="translate(194.12047980259365,-43.00022516295401)"><circle class="outline" cx="0" cy="0" r="32.5" fill="#FFFB00" stroke="#FFFFFF" stroke-width="1px"/><text text-anchor="middle" pointer-events="none" font-family="sans-serif" dy="2.03125" font-size="32.5" fill="#000000"/><text text-anchor="middle" pointer-events="none" y="5" font-size="10px" fill="#000000" font-family="sans-serif"> SideEffect</text></g></g></svg>