<svg xmlns="http://www.w3.org/2000/svg" width="764.6776733398438" height="388.17523193359375" viewBox="-269.83441162109375 -152.23602294921875 764.6776733398438 388.17523193359375"><title>Neo4j Graph Visualization</title><desc>Created using Neo4j (http://www.neo4j.com/)</desc><g class="layer relationships"><g class="relationship" transform="translate(-105.15100477756428 178.63254867320165) rotate(228.13359102998845)"><path class="outline" fill="#A5ABB6" stroke="none" d="M 32.5 0.75 L 45.94915584404052 0.75 L 45.94915584404052 -0.75 L 32.5 -0.75 Z M 138.61581996757567 0.75 L 152.0649758116162 0.75 L 152.0649758116162 3.75 L 159.5649758116162 0 L 152.0649758116162 -3.75 L 152.0649758116162 -0.75 L 138.61581996757567 -0.75 Z"/><text text-anchor="middle" pointer-events="none" font-size="12px" fill="#000000" x="92.2824879058081" y="5" transform="rotate(180 92.2824879058081 0)" font-family="sans-serif">CAUSES_CcSE</text></g><g class="relationship" transform="translate(-105.15100477756428 178.63254867320165) rotate(302.6092987978765)"><path class="outline" fill="#A5ABB6" stroke="none" d="M 27.77082562299426,16.899519052838325 L 28.52082562299426,15.600480947161667 A 237.99835779022214 237.99835779022214 0 0 0 72.54177109481785,35.367211617619404 L 72.06921594284464,36.790830818228756 A 239.49835779022214 239.49835779022214 0 0 1 27.77082562299426,16.899519052838325 Z M 217.3290887428323,38.58642784472252 L 216.8918680983851,37.15156265660582 A 237.99835779022214 237.99835779022214 0 0 0 261.38797199990967,18.479015449103432 L 259.9526515816633,15.844654939043158 L 268.33270337962193,15.549304531002546 L 263.54095262727924,22.430556214193846 L 262.1056322090329,19.79619570413357 A 239.49835779022214 239.49835779022214 0 0 1 217.3290887428323,38.58642784472252"/><text text-anchor="middle" pointer-events="none" font-size="12px" fill="#000000" x="144.5689962029808" y="53.217976418213084" font-family="sans-serif">DOWNREGULATES_CdG</text></g><g class="relationship" transform="translate(-105.15100477756428 178.63254867320165) rotate(363.31503927914036)"><path class="outline" fill="#A5ABB6" stroke="none" d="M 31.198475070567827,9.136063335548725 L 31.58670363822161,7.687174596115122 A 570.1472149630173 570.1472149630173 0 0 0 126.8086673866051,24.706682527651196 L 126.67095823196263,26.200347881312382 A 571.6472149630173 571.6472149630173 0 0 1 31.198475070567827,9.136063335548725 Z M 225.60896949369436,26.72356848620757 L 225.4870657034855,25.22853020377704 A 570.1472149630173 570.1472149630173 0 0 0 320.8837092922215,9.21708360037234 L 320.1379437555858,6.311256047958656 L 328.33471955741464,8.079126646886571 L 322.00235759717503,13.575824928992867 L 321.25659206053933,10.669997376579182 A 571.6472149630173 571.6472149630173 0 0 1 225.60896949369436,26.72356848620757"/><text text-anchor="middle" pointer-events="none" font-size="12px" fill="#000000" x="176.13258908183317" y="32.85648691282938" font-family="sans-serif">PALLIATES_CpD</text></g><g class="relationship" transform="translate(254.0614257479432 199.439209858499) rotate(233.66645264705676)"><path class="outline" fill="#A5ABB6" stroke="none" d="M 27.77082562299426,16.899519052838325 L 28.52082562299426,15.600480947161667 A 277.5963800422228 277.5963800422228 0 0 0 91.87459618665461,42.3426566636486 L 91.46693010264816,43.78619688267639 A 279.0963800422228 279.0963800422228 0 0 1 27.77082562299426,16.899519052838325 Z M 237.27638251727308,45.381484911132304 L 236.9003975249422,43.929370836569944 A 277.5963800422228 277.5963800422228 0 0 0 300.8240999800757,18.5797264384338 L 299.3813028767886,15.949453350188724 L 307.76048197651016,15.630301952277257 L 302.98829563500635,22.525136070801413 L 301.54549853171926,19.894862982556337 A 279.0963800422228 279.0963800422228 0 0 1 237.27638251727308,45.381484911132304"/><text text-anchor="middle" pointer-events="none" font-size="12px" fill="#000000" x="164.27383533413055" y="58.5246858515639" transform="rotate(180 164.27383533413055 53.5246858515639)" font-family="sans-serif">DOWNREGULATES_DdG</text></g><g class="relationship" transform="translate(254.0614257479432 199.439209858499) rotate(233.66645264705676)"><path class="outline" fill="#A5ABB6" stroke="none" d="M 32.5 0.75 L 107.81088790016858 0.75 L 107.81088790016858 -0.75 L 32.5 -0.75 Z M 220.9442191989967 0.75 L 296.2551070991653 0.75 L 296.2551070991653 3.75 L 303.7551070991653 0 L 296.2551070991653 -3.75 L 296.2551070991653 -0.75 L 220.9442191989967 -0.75 Z"/><text text-anchor="middle" pointer-events="none" font-size="12px" fill="#000000" x="164.37755354958264" y="5" transform="rotate(180 164.37755354958264 0)" font-family="sans-serif">ASSOCIATES_DaG</text></g><g class="relationship" transform="translate(254.0614257479432 199.439209858499) rotate(291.85410752640826)"><path class="outline" fill="#A5ABB6" stroke="none" d="M 32.5 0.75 L 110.85339588415272 0.75 L 110.85339588415272 -0.75 L 32.5 -0.75 Z M 208.85339588415272 0.75 L 287.20679176830544 0.75 L 287.20679176830544 3.75 L 294.70679176830544 0 L 287.20679176830544 -3.75 L 287.20679176830544 -0.75 L 208.85339588415272 -0.75 Z"/><text text-anchor="middle" pointer-events="none" font-size="12px" fill="#000000" x="159.85339588415272" y="5" font-family="sans-serif">LOCALIZES_DlA</text></g><g class="relationship" transform="translate(254.0614257479432 199.439209858499) rotate(343.9786634436182)"><path class="outline" fill="#A5ABB6" stroke="none" d="M 32.5 0.75 L 52.1851806147468 0.75 L 52.1851806147468 -0.75 L 32.5 -0.75 Z M 152.85184473828195 0.75 L 172.53702535302875 0.75 L 172.53702535302875 3.75 L 180.03702535302875 0 L 172.53702535302875 -3.75 L 172.53702535302875 -0.75 L 152.85184473828195 -0.75 Z"/><text text-anchor="middle" pointer-events="none" font-size="12px" fill="#000000" x="102.51851267651438" y="5" font-family="sans-serif">PRESENTS_DpS</text></g><g class="relationship" transform="translate(254.0614257479432 199.439209858499) rotate(233.66645264705676)"><path class="outline" fill="#A5ABB6" stroke="none" d="M 27.77082562299426,-16.899519052838325 L 28.52082562299426,-15.600480947161667 A 277.5963800422228 277.5963800422228 0 0 1 102.16499359867522,-45.03696134878436 L 101.81293197217533,-46.49506032044104 A 279.0963800422228 279.0963800422228 0 0 0 27.77082562299426,-16.899519052838325 Z M 226.87358949150732,-47.86333766095305 L 226.55351418004113,-46.39788489986188 A 277.5963800422228 277.5963800422228 0 0 1 300.8240999800757,-18.5797264384338 L 299.3813028767886,-15.949453350188724 L 307.76048197651016,-15.630301952277257 L 302.98829563500635,-22.525136070801413 L 301.54549853171926,-19.894862982556337 A 279.0963800422228 279.0963800422228 0 0 0 226.87358949150732,-47.86333766095305"/><text text-anchor="middle" pointer-events="none" font-size="12px" fill="#000000" x="164.27383533413064" y="-48.5246858515639" transform="rotate(180 164.27383533413064 -53.5246858515639)" font-family="sans-serif">UPREGULATES_DuG</text></g><g class="relationship" transform="translate(-105.15100477756428 178.63254867320165) rotate(363.31503927914036)"><path class="outline" fill="#A5ABB6" stroke="none" d="M 31.198475070567827,-9.136063335548725 L 31.58670363822161,-7.687174596115122 A 570.1472149630173 570.1472149630173 0 0 1 136.32932089214793,-25.50405569509735 L 136.2166596196726,-26.99981885739419 A 571.6472149630173 571.6472149630173 0 0 0 31.198475070567827,-9.136063335548725 Z M 216.0553464603169,-27.422035207713634 L 215.95851133864167,-25.925164151406534 A 570.1472149630173 570.1472149630173 0 0 1 320.8837092922215,-9.21708360037234 L 320.1379437555858,-6.311256047958656 L 328.33471955741464,-8.079126646886571 L 322.00235759717503,-13.575824928992867 L 321.25659206053933,-10.669997376579182 A 571.6472149630173 571.6472149630173 0 0 0 216.0553464603169,-27.422035207713634"/><text text-anchor="middle" pointer-events="none" font-size="12px" fill="#000000" x="176.132589081833" y="-22.856486912829382" font-family="sans-serif">TREATS_CtD</text></g><g class="relationship" transform="translate(375.86235093741584 -104.25277094161318) rotate(534.164256832396)"><path class="outline" fill="#A5ABB6" stroke="none" d="M 27.77082562299426,-16.899519052838325 L 28.52082562299426,-15.600480947161667 A 263.9727608219506 263.9727608219506 0 0 1 103.4425915449614,-44.72432511236684 L 103.11832732365696,-46.18885668074688 A 265.4727608219506 265.4727608219506 0 0 0 27.77082562299426,-16.899519052838325 Z M 211.97673991513548,-47.42891055252966 L 211.68592175140859,-45.95737231121666 A 263.9727608219506 263.9727608219506 0 0 1 287.25168461760813,-18.54779751928532 L 285.8112578305148,-15.916225618115982 L 294.1907210673048,-15.60462352684435 L 289.41232479824816,-22.49515537103933 L 287.97189801115485,-19.86358346986999 A 265.4727608219506 265.4727608219506 0 0 0 211.97673991513548,-47.42891055252966"/><text text-anchor="middle" pointer-events="none" font-size="12px" fill="#000000" x="157.4918287215735" y="-46.69895080527897" transform="rotate(180 157.4918287215735 -51.69895080527897)" font-family="sans-serif">EXPRESSES_AeG</text></g><g class="relationship" transform="translate(-105.15100477756428 178.63254867320165) rotate(302.6092987978765)"><path class="outline" fill="#A5ABB6" stroke="none" d="M 32.5 0.75 L 107.68580445263754 0.75 L 107.68580445263754 -0.75 L 32.5 -0.75 Z M 181.68580445263754 0.75 L 256.8716089052751 0.75 L 256.8716089052751 3.75 L 264.3716089052751 0 L 256.8716089052751 -3.75 L 256.8716089052751 -0.75 L 181.68580445263754 -0.75 Z"/><text text-anchor="middle" pointer-events="none" font-size="12px" fill="#000000" x="144.68580445263754" y="5" font-family="sans-serif">BINDS_CbG</text></g><g class="relationship" transform="translate(375.86235093741584 -104.25277094161318) rotate(534.164256832396)"><path class="outline" fill="#A5ABB6" stroke="none" d="M 32.5 0.75 L 84.36637855870381 0.75 L 84.36637855870381 -0.75 L 32.5 -0.75 Z M 230.83303810460225 0.75 L 282.69941666330607 0.75 L 282.69941666330607 3.75 L 290.19941666330607 0 L 282.69941666330607 -3.75 L 282.69941666330607 -0.75 L 230.83303810460225 -0.75 Z"/><text text-anchor="middle" pointer-events="none" font-size="12px" fill="#000000" x="157.59970833165303" y="5" transform="rotate(180 157.59970833165303 0)" font-family="sans-serif">DOWNREGULATES_AdG</text></g><g class="relationship" transform="translate(375.86235093741584 -104.25277094161318) rotate(534.164256832396)"><path class="outline" fill="#A5ABB6" stroke="none" d="M 27.77082562299426,16.899519052838325 L 28.52082562299426,15.600480947161667 A 263.9727608219506 263.9727608219506 0 0 0 95.7777967476461,42.9068691448351 L 95.40997806200916,44.36107319327408 A 265.4727608219506 265.4727608219506 0 0 1 27.77082562299426,16.899519052838325 Z M 219.72472565261455,45.77719694888992 L 219.3901290666863,44.31499138034451 A 263.9727608219506 263.9727608219506 0 0 0 287.25168461760813,18.54779751928532 L 285.8112578305148,15.916225618115982 L 294.1907210673048,15.60462352684435 L 289.41232479824816,22.49515537103933 L 287.97189801115485,19.86358346986999 A 265.4727608219506 265.4727608219506 0 0 1 219.72472565261455,45.77719694888992"/><text text-anchor="middle" pointer-events="none" font-size="12px" fill="#000000" x="157.4918287215736" y="56.69895080527897" transform="rotate(180 157.4918287215736 51.69895080527897)" font-family="sans-serif">UPREGULATES_AuG</text></g><g class="relationship" transform="translate(-105.15100477756428 178.63254867320165) rotate(302.6092987978765)"><path class="outline" fill="#A5ABB6" stroke="none" d="M 27.77082562299426,-16.899519052838325 L 28.52082562299426,-15.600480947161667 A 237.99835779022214 237.99835779022214 0 0 1 82.70494277925876,-38.490534062518606 L 82.2964416723143,-39.93383820427982 A 239.49835779022214 239.49835779022214 0 0 0 27.77082562299426,-16.899519052838325 Z M 207.02729672126827,-41.475670426219835 L 206.65459713731985,-40.02270964900501 A 237.99835779022214 237.99835779022214 0 0 1 261.38797199990967,-18.479015449103432 L 259.9526515816633,-15.844654939043158 L 268.33270337962193,-15.549304531002546 L 263.54095262727924,-22.430556214193846 L 262.1056322090329,-19.79619570413357 A 239.49835779022214 239.49835779022214 0 0 0 207.02729672126827,-41.475670426219835"/><text text-anchor="middle" pointer-events="none" font-size="12px" fill="#000000" x="144.56899620298077" y="-43.217976418213084" font-family="sans-serif">UPREGULATES_CuG</text></g></g><g class="layer nodes"><g class="node" transform="translate(54.835332813492585,-71.44168822097942)"><circle class="outline" cx="0" cy="0" r="32.5" fill="#0096FF" stroke="#FFFFFF" stroke-width="1px"/><text text-anchor="middle" pointer-events="none" font-family="sans-serif" dy="2.03125" font-size="32.5" fill="#FFFFFF"/><text text-anchor="middle" pointer-events="none" y="6" font-size="12px" fill="#FFFFFF" font-family="sans-serif"> Gene</text></g><g class="node" transform="translate(254.0614257479432,199.439209858499)"><circle class="outline" cx="0" cy="0" r="32.5" fill="#8E4F00" stroke="#FFFFFF" stroke-width="1px"/><text text-anchor="middle" pointer-events="none" font-family="sans-serif" dy="2.03125" font-size="32.5" fill="#FFFFFF"/><text text-anchor="middle" pointer-events="none" y="6" font-size="12px" fill="#FFFFFF" font-family="sans-serif"> Disease</text></g><g class="node" transform="translate(-105.15100477756428,178.63254867320165)"><circle class="outline" cx="0" cy="0" r="32.5" fill="#FF2600" stroke="#FFFFFF" stroke-width="1px"/><text text-anchor="middle" pointer-events="none" font-family="sans-serif" dy="2.03125" font-size="32.5" fill="#FFFFFF"/><text text-anchor="middle" pointer-events="none" y="6" font-size="12px" fill="#FFFFFF" font-family="sans-serif"> Compound</text></g><g class="node" transform="translate(375.86235093741584,-104.25277094161318)"><circle class="outline" cx="0" cy="0" r="32.5" fill="#008F00" stroke="#FFFFFF" stroke-width="1px"/><text text-anchor="middle" pointer-events="none" font-family="sans-serif" dy="2.03125" font-size="32.5" fill="#FFFFFF"/><text text-anchor="middle" pointer-events="none" y="6" font-size="12px" fill="#FFFFFF" font-family="sans-serif"> Anatomy</text></g><g class="node" transform="translate(458.343297060915,140.77998893983684)"><circle class="outline" cx="0" cy="0" r="32.5" fill="#A5ABB6" stroke="#FFFFFF" stroke-width="1px"/><text text-anchor="middle" pointer-events="none" font-family="sans-serif" dy="2.03125" font-size="32.5" fill="#FFFFFF"/><text text-anchor="middle" pointer-events="none" y="6" font-size="12px" fill="#FFFFFF" font-family="sans-serif"> Symptom</text></g><g class="node" transform="translate(-233.3344148499738,35.601194363297935)"><circle class="outline" cx="0" cy="0" r="32.5" fill="#FFFB00" stroke="#FFFFFF" stroke-width="1px"/><text text-anchor="middle" pointer-events="none" font-family="sans-serif" dy="2.03125" font-size="32.5" fill="#000000"/><text text-anchor="middle" pointer-events="none" y="6" font-size="12px" fill="#000000" font-family="sans-serif"> SideEffect</text></g></g></svg>